# xmcd
#
# Track frame offsets:
# 150
# 30273
# 52969
# 88473
# 123634
# 150814
# 177959
# 199069
# 220776
# 262151
#
# Disc length: 4111 seconds
#
#
# Revision: 0
# Processed by: cddbd v1.5.2PL0 Copyright (c) Steve Scherf et al.
# Submitted via: FreeRIP 2.60 
#
DISCID=84100d0a
DTITLE=David Rotundo Band - Live At Roc'n Doc's
DYEAR=1900
DGENRE=Blues
TTITLE0=I Want To Get Lucky
TTITLE1=Working Class Blues
TTITLE2=Let's have A Good Time
TTITLE3=Worries And Troubles
TTITLE4=Vampire Woman
TTITLE5=Talk To Me
TTITLE6=I Don't Need No Body
TTITLE7=Wiggle A Little Boogie
TTITLE8=Punching Bag Man
TTITLE9=I Wish You Would
EXTD=All songs written by David Rotundo except "Vampire Woman" by Sane Scott, "I Wish You Would" by Billy Boy Arnold\nDesmond Brown - guitar, Dan Dufour - guitar, Chuck Keeping - drums, David Rotundo - vocals and harmonica, Shanes Scott - bass and vocals
EXTT0=
EXTT1=
EXTT2=
EXTT3=
EXTT4=
EXTT5=
EXTT6=
EXTT7=
EXTT8=
EXTT9=
PLAYORDER=
